<?xml version="1.0" encoding="UTF-8" standalone="no"?><svg xmlns="http://www.w3.org/2000/svg" xmlns:xlink="http://www.w3.org/1999/xlink" contentStyleType="text/css" height="573px" preserveAspectRatio="none" style="width:731px;height:573px;background:#FFFFFF;" version="1.1" viewBox="0 0 731 573" width="731px" zoomAndPan="magnify"><defs/><g><rect fill="#FFFFFF" height="30.3516" style="stroke:#181818;stroke-width:1.0;" width="10" x="165.5" y="114.9609"/><rect fill="#FFFFFF" height="255.1094" style="stroke:#181818;stroke-width:1.0;" width="10" x="290.5" y="145.3125"/><rect fill="#FFFFFF" height="28" style="stroke:#181818;stroke-width:1.0;" width="10" x="295.5" y="305.0703"/><rect fill="#FFFFFF" height="12" style="stroke:#181818;stroke-width:1.0;" width="10" x="414.5" y="175.6641"/><rect fill="#FFFFFF" height="12" style="stroke:#181818;stroke-width:1.0;" width="10" x="494.5" y="236.3672"/><rect fill="#FFFFFF" height="112.3516" style="stroke:#181818;stroke-width:1.0;" width="10" x="607.5" y="370.4219"/><rect fill="#FFFFFF" height="28" style="stroke:#181818;stroke-width:1.0;" width="10" x="612.5" y="438.7734"/><line style="stroke:#181818;stroke-width:0.5;stroke-dasharray:5.0,5.0;" x1="50" x2="50" y1="82.6094" y2="491.7734"/><line style="stroke:#181818;stroke-width:0.5;stroke-dasharray:5.0,5.0;" x1="170" x2="170" y1="82.6094" y2="491.7734"/><line style="stroke:#181818;stroke-width:0.5;stroke-dasharray:5.0,5.0;" x1="295" x2="295" y1="82.6094" y2="491.7734"/><line style="stroke:#181818;stroke-width:0.5;stroke-dasharray:5.0,5.0;" x1="419" x2="419" y1="82.6094" y2="491.7734"/><line style="stroke:#181818;stroke-width:0.5;stroke-dasharray:5.0,5.0;" x1="499" x2="499" y1="82.6094" y2="491.7734"/><line style="stroke:#181818;stroke-width:0.5;stroke-dasharray:5.0,5.0;" x1="612" x2="612" y1="82.6094" y2="491.7734"/><text fill="#000000" font-family="sans-serif" font-size="14" lengthAdjust="spacing" textLength="85" x="5" y="79.5332">AppRequests</text><ellipse cx="50.5" cy="13.5" fill="#E2E2F0" rx="8" ry="8" style="stroke:#181818;stroke-width:0.5;"/><path d="M50.5,21.5 L50.5,48.5 M37.5,29.5 L63.5,29.5 M50.5,48.5 L37.5,63.5 M50.5,48.5 L63.5,63.5 " fill="none" style="stroke:#181818;stroke-width:0.5;"/><text fill="#000000" font-family="sans-serif" font-size="14" lengthAdjust="spacing" textLength="85" x="5" y="505.3066">AppRequests</text><ellipse cx="50.5" cy="516.8828" fill="#E2E2F0" rx="8" ry="8" style="stroke:#181818;stroke-width:0.5;"/><path d="M50.5,524.8828 L50.5,551.8828 M37.5,532.8828 L63.5,532.8828 M50.5,551.8828 L37.5,566.8828 M50.5,551.8828 L63.5,566.8828 " fill="none" style="stroke:#181818;stroke-width:0.5;"/><rect fill="#E2E2F0" height="31.6094" rx="2.5" ry="2.5" style="stroke:#181818;stroke-width:0.5;" width="101" x="120" y="50"/><text fill="#000000" font-family="sans-serif" font-size="14" lengthAdjust="spacing" textLength="87" x="127" y="71.5332">AppController</text><rect fill="#E2E2F0" height="31.6094" rx="2.5" ry="2.5" style="stroke:#181818;stroke-width:0.5;" width="101" x="120" y="490.7734"/><text fill="#000000" font-family="sans-serif" font-size="14" lengthAdjust="spacing" textLength="87" x="127" y="512.3066">AppController</text><rect fill="#E2E2F0" height="31.6094" rx="2.5" ry="2.5" style="stroke:#181818;stroke-width:0.5;" width="95" x="248" y="50"/><text fill="#000000" font-family="sans-serif" font-size="14" lengthAdjust="spacing" textLength="81" x="255" y="71.5332">AppManager</text><rect fill="#E2E2F0" height="31.6094" rx="2.5" ry="2.5" style="stroke:#181818;stroke-width:0.5;" width="95" x="248" y="490.7734"/><text fill="#000000" font-family="sans-serif" font-size="14" lengthAdjust="spacing" textLength="81" x="255" y="512.3066">AppManager</text><rect fill="#E2E2F0" height="31.6094" rx="2.5" ry="2.5" style="stroke:#181818;stroke-width:0.5;" width="65" x="387" y="50"/><text fill="#000000" font-family="sans-serif" font-size="14" lengthAdjust="spacing" textLength="51" x="394" y="71.5332">Hashing</text><rect fill="#E2E2F0" height="31.6094" rx="2.5" ry="2.5" style="stroke:#181818;stroke-width:0.5;" width="65" x="387" y="490.7734"/><text fill="#000000" font-family="sans-serif" font-size="14" lengthAdjust="spacing" textLength="51" x="394" y="512.3066">Hashing</text><rect fill="#E2E2F0" height="31.6094" rx="2.5" ry="2.5" style="stroke:#181818;stroke-width:0.5;" width="75" x="462" y="50"/><text fill="#000000" font-family="sans-serif" font-size="14" lengthAdjust="spacing" textLength="61" x="469" y="71.5332">Encrypter</text><rect fill="#E2E2F0" height="31.6094" rx="2.5" ry="2.5" style="stroke:#181818;stroke-width:0.5;" width="75" x="462" y="490.7734"/><text fill="#000000" font-family="sans-serif" font-size="14" lengthAdjust="spacing" textLength="61" x="469" y="512.3066">Encrypter</text><rect fill="#E2E2F0" height="31.6094" rx="2.5" ry="2.5" style="stroke:#181818;stroke-width:0.5;" width="131" x="547" y="50"/><text fill="#000000" font-family="sans-serif" font-size="14" lengthAdjust="spacing" textLength="117" x="554" y="71.5332">DatabaseManager</text><rect fill="#E2E2F0" height="31.6094" rx="2.5" ry="2.5" style="stroke:#181818;stroke-width:0.5;" width="131" x="547" y="490.7734"/><text fill="#000000" font-family="sans-serif" font-size="14" lengthAdjust="spacing" textLength="117" x="554" y="512.3066">DatabaseManager</text><rect fill="#FFFFFF" height="30.3516" style="stroke:#181818;stroke-width:1.0;" width="10" x="165.5" y="114.9609"/><rect fill="#FFFFFF" height="255.1094" style="stroke:#181818;stroke-width:1.0;" width="10" x="290.5" y="145.3125"/><rect fill="#FFFFFF" height="28" style="stroke:#181818;stroke-width:1.0;" width="10" x="295.5" y="305.0703"/><rect fill="#FFFFFF" height="12" style="stroke:#181818;stroke-width:1.0;" width="10" x="414.5" y="175.6641"/><rect fill="#FFFFFF" height="12" style="stroke:#181818;stroke-width:1.0;" width="10" x="494.5" y="236.3672"/><rect fill="#FFFFFF" height="112.3516" style="stroke:#181818;stroke-width:1.0;" width="10" x="607.5" y="370.4219"/><rect fill="#FFFFFF" height="28" style="stroke:#181818;stroke-width:1.0;" width="10" x="612.5" y="438.7734"/><polygon fill="#181818" points="153.5,110.9609,163.5,114.9609,153.5,118.9609,157.5,114.9609" style="stroke:#181818;stroke-width:1.0;"/><line style="stroke:#181818;stroke-width:1.0;" x1="50.5" x2="159.5" y1="114.9609" y2="114.9609"/><text fill="#000000" font-family="sans-serif" font-size="13" lengthAdjust="spacing" textLength="96" x="57.5" y="110.1045">Send pairing info</text><polygon fill="#181818" points="278.5,141.3125,288.5,145.3125,278.5,149.3125,282.5,145.3125" style="stroke:#181818;stroke-width:1.0;"/><line style="stroke:#181818;stroke-width:1.0;" x1="170.5" x2="284.5" y1="145.3125" y2="145.3125"/><text fill="#000000" font-family="sans-serif" font-size="13" lengthAdjust="spacing" textLength="96" x="177.5" y="140.4561">Send pairing info</text><polygon fill="#181818" points="402.5,171.6641,412.5,175.6641,402.5,179.6641,406.5,175.6641" style="stroke:#181818;stroke-width:1.0;"/><line style="stroke:#181818;stroke-width:1.0;" x1="300.5" x2="408.5" y1="175.6641" y2="175.6641"/><text fill="#000000" font-family="sans-serif" font-size="13" lengthAdjust="spacing" textLength="76" x="307.5" y="170.8076">Hash alarmId</text><polygon fill="#181818" points="311.5,183.6641,301.5,187.6641,311.5,191.6641,307.5,187.6641" style="stroke:#181818;stroke-width:1.0;"/><line style="stroke:#181818;stroke-width:1.0;stroke-dasharray:2.0,2.0;" x1="305.5" x2="418.5" y1="187.6641" y2="187.6641"/><text fill="#000000" font-family="sans-serif" font-size="13" lengthAdjust="spacing" textLength="90" x="317.5" y="202.1592">Hashed alarmId</text><polygon fill="#181818" points="482.5,232.3672,492.5,236.3672,482.5,240.3672,486.5,236.3672" style="stroke:#181818;stroke-width:1.0;"/><line style="stroke:#181818;stroke-width:1.0;" x1="300.5" x2="488.5" y1="236.3672" y2="236.3672"/><text fill="#000000" font-family="sans-serif" font-size="13" lengthAdjust="spacing" textLength="81" x="307.5" y="231.5107">Encrypt times</text><polygon fill="#181818" points="311.5,244.3672,301.5,248.3672,311.5,252.3672,307.5,248.3672" style="stroke:#181818;stroke-width:1.0;"/><line style="stroke:#181818;stroke-width:1.0;stroke-dasharray:2.0,2.0;" x1="305.5" x2="498.5" y1="248.3672" y2="248.3672"/><text fill="#000000" font-family="sans-serif" font-size="13" lengthAdjust="spacing" textLength="95" x="317.5" y="262.8623">Encrypted times</text><line style="stroke:#181818;stroke-width:1.0;" x1="305.5" x2="347.5" y1="297.0703" y2="297.0703"/><line style="stroke:#181818;stroke-width:1.0;" x1="347.5" x2="347.5" y1="297.0703" y2="310.0703"/><line style="stroke:#181818;stroke-width:1.0;" x1="306.5" x2="347.5" y1="310.0703" y2="310.0703"/><polygon fill="#181818" points="316.5,306.0703,306.5,310.0703,316.5,314.0703,312.5,310.0703" style="stroke:#181818;stroke-width:1.0;"/><text fill="#000000" font-family="sans-serif" font-size="13" lengthAdjust="spacing" textLength="98" x="312.5" y="292.2139">Create dal object</text><polygon fill="#181818" points="595.5,366.4219,605.5,370.4219,595.5,374.4219,599.5,370.4219" style="stroke:#181818;stroke-width:1.0;"/><line style="stroke:#181818;stroke-width:1.0;" x1="300.5" x2="601.5" y1="370.4219" y2="370.4219"/><text fill="#000000" font-family="sans-serif" font-size="13" lengthAdjust="spacing" textLength="95" x="307.5" y="365.5654">Save pair details</text><line style="stroke:#181818;stroke-width:1.0;" x1="622.5" x2="664.5" y1="430.7734" y2="430.7734"/><line style="stroke:#181818;stroke-width:1.0;" x1="664.5" x2="664.5" y1="430.7734" y2="443.7734"/><line style="stroke:#181818;stroke-width:1.0;" x1="623.5" x2="664.5" y1="443.7734" y2="443.7734"/><polygon fill="#181818" points="633.5,439.7734,623.5,443.7734,633.5,447.7734,629.5,443.7734" style="stroke:#181818;stroke-width:1.0;"/><text fill="#000000" font-family="sans-serif" font-size="13" lengthAdjust="spacing" textLength="95" x="629.5" y="425.917">Save pair details</text><!--MD5=[b71fa69ee87d604de6911ef90401b9eb]
@startuml
skinparam ResponseMessageBelowArrow true

actor AppRequests
participant AppController
participant AppManager
participant Hashing
participant Encrypter
participant DatabaseManager

AppRequests -> AppController ++ : Send pairing info
AppController -> AppManager - -++ : Send pairing info
AppManager -> Hashing ++: Hash alarmId
Hashing - -> AppManager - -: Hashed alarmId
AppManager -> Encrypter ++ : Encrypt times
Encrypter - -> AppManager - -: Encrypted times
AppManager -> AppManager ++- - : Create dal object
AppManager -> DatabaseManager ++- - : Save pair details
DatabaseManager -> DatabaseManager ++- - : Save pair details
@enduml

PlantUML version 1.2022.7(Mon Aug 22 19:01:30 CEST 2022)
(GPL source distribution)
Java Runtime: Java(TM) SE Runtime Environment
JVM: Java HotSpot(TM) 64-Bit Server VM
Default Encoding: Cp1252
Language: da
Country: DK
--></g></svg>