<?xml version="1.0" encoding="UTF-8" standalone="no"?><svg xmlns="http://www.w3.org/2000/svg" xmlns:xlink="http://www.w3.org/1999/xlink" contentStyleType="text/css" height="349px" preserveAspectRatio="none" style="width:569px;height:349px;background:#FFFFFF;" version="1.1" viewBox="0 0 569 349" width="569px" zoomAndPan="magnify"><defs/><g><rect fill="#FFFFFF" height="30.3516" style="stroke:#181818;stroke-width:1.0;" width="10" x="162" y="114.9609"/><rect fill="#FFFFFF" height="30.3516" style="stroke:#181818;stroke-width:1.0;" width="10" x="281" y="145.3125"/><rect fill="#FFFFFF" height="82.3516" style="stroke:#181818;stroke-width:1.0;" width="10" x="409.5" y="175.6641"/><rect fill="#FFFFFF" height="28" style="stroke:#181818;stroke-width:1.0;" width="10" x="414.5" y="214.0156"/><line style="stroke:#181818;stroke-width:0.5;stroke-dasharray:5.0,5.0;" x1="26" x2="26" y1="82.6094" y2="267.0156"/><line style="stroke:#181818;stroke-width:0.5;stroke-dasharray:5.0,5.0;" x1="167" x2="167" y1="82.6094" y2="267.0156"/><line style="stroke:#181818;stroke-width:0.5;stroke-dasharray:5.0,5.0;" x1="286" x2="286" y1="82.6094" y2="267.0156"/><line style="stroke:#181818;stroke-width:0.5;stroke-dasharray:5.0,5.0;" x1="414" x2="414" y1="82.6094" y2="267.0156"/><text fill="#000000" font-family="sans-serif" font-size="14" lengthAdjust="spacing" textLength="36" x="5" y="79.5332">Alarm</text><ellipse cx="26" cy="13.5" fill="#E2E2F0" rx="8" ry="8" style="stroke:#181818;stroke-width:0.5;"/><path d="M26,21.5 L26,48.5 M13,29.5 L39,29.5 M26,48.5 L13,63.5 M26,48.5 L39,63.5 " fill="none" style="stroke:#181818;stroke-width:0.5;"/><text fill="#000000" font-family="sans-serif" font-size="14" lengthAdjust="spacing" textLength="36" x="5" y="280.5488">Alarm</text><ellipse cx="26" cy="292.125" fill="#E2E2F0" rx="8" ry="8" style="stroke:#181818;stroke-width:0.5;"/><path d="M26,300.125 L26,327.125 M13,308.125 L39,308.125 M26,327.125 L13,342.125 M26,327.125 L39,342.125 " fill="none" style="stroke:#181818;stroke-width:0.5;"/><rect fill="#E2E2F0" height="31.6094" rx="2.5" ry="2.5" style="stroke:#181818;stroke-width:0.5;" width="112" x="111" y="50"/><text fill="#000000" font-family="sans-serif" font-size="14" lengthAdjust="spacing" textLength="98" x="118" y="71.5332">AlarmController</text><rect fill="#E2E2F0" height="31.6094" rx="2.5" ry="2.5" style="stroke:#181818;stroke-width:0.5;" width="112" x="111" y="266.0156"/><text fill="#000000" font-family="sans-serif" font-size="14" lengthAdjust="spacing" textLength="98" x="118" y="287.5488">AlarmController</text><rect fill="#E2E2F0" height="31.6094" rx="2.5" ry="2.5" style="stroke:#181818;stroke-width:0.5;" width="106" x="233" y="50"/><text fill="#000000" font-family="sans-serif" font-size="14" lengthAdjust="spacing" textLength="92" x="240" y="71.5332">AlarmManager</text><rect fill="#E2E2F0" height="31.6094" rx="2.5" ry="2.5" style="stroke:#181818;stroke-width:0.5;" width="106" x="233" y="266.0156"/><text fill="#000000" font-family="sans-serif" font-size="14" lengthAdjust="spacing" textLength="92" x="240" y="287.5488">AlarmManager</text><rect fill="#E2E2F0" height="31.6094" rx="2.5" ry="2.5" style="stroke:#181818;stroke-width:0.5;" width="131" x="349" y="50"/><text fill="#000000" font-family="sans-serif" font-size="14" lengthAdjust="spacing" textLength="117" x="356" y="71.5332">DatabaseManager</text><rect fill="#E2E2F0" height="31.6094" rx="2.5" ry="2.5" style="stroke:#181818;stroke-width:0.5;" width="131" x="349" y="266.0156"/><text fill="#000000" font-family="sans-serif" font-size="14" lengthAdjust="spacing" textLength="117" x="356" y="287.5488">DatabaseManager</text><rect fill="#FFFFFF" height="30.3516" style="stroke:#181818;stroke-width:1.0;" width="10" x="162" y="114.9609"/><rect fill="#FFFFFF" height="30.3516" style="stroke:#181818;stroke-width:1.0;" width="10" x="281" y="145.3125"/><rect fill="#FFFFFF" height="82.3516" style="stroke:#181818;stroke-width:1.0;" width="10" x="409.5" y="175.6641"/><rect fill="#FFFFFF" height="28" style="stroke:#181818;stroke-width:1.0;" width="10" x="414.5" y="214.0156"/><polygon fill="#181818" points="150,110.9609,160,114.9609,150,118.9609,154,114.9609" style="stroke:#181818;stroke-width:1.0;"/><line style="stroke:#181818;stroke-width:1.0;" x1="26" x2="156" y1="114.9609" y2="114.9609"/><text fill="#000000" font-family="sans-serif" font-size="13" lengthAdjust="spacing" textLength="117" x="33" y="110.1045">Reset alarm request</text><polygon fill="#181818" points="269,141.3125,279,145.3125,269,149.3125,273,145.3125" style="stroke:#181818;stroke-width:1.0;"/><line style="stroke:#181818;stroke-width:1.0;" x1="167" x2="275" y1="145.3125" y2="145.3125"/><text fill="#000000" font-family="sans-serif" font-size="13" lengthAdjust="spacing" textLength="70" x="174" y="140.4561">Reset alarm</text><polygon fill="#181818" points="397.5,171.6641,407.5,175.6641,397.5,179.6641,401.5,175.6641" style="stroke:#181818;stroke-width:1.0;"/><line style="stroke:#181818;stroke-width:1.0;" x1="286" x2="403.5" y1="175.6641" y2="175.6641"/><text fill="#000000" font-family="sans-serif" font-size="13" lengthAdjust="spacing" textLength="70" x="293" y="170.8076">Reset alarm</text><line style="stroke:#181818;stroke-width:1.0;" x1="424.5" x2="466.5" y1="206.0156" y2="206.0156"/><line style="stroke:#181818;stroke-width:1.0;" x1="466.5" x2="466.5" y1="206.0156" y2="219.0156"/><line style="stroke:#181818;stroke-width:1.0;" x1="425.5" x2="466.5" y1="219.0156" y2="219.0156"/><polygon fill="#181818" points="435.5,215.0156,425.5,219.0156,435.5,223.0156,431.5,219.0156" style="stroke:#181818;stroke-width:1.0;"/><text fill="#000000" font-family="sans-serif" font-size="13" lengthAdjust="spacing" textLength="131" x="431.5" y="201.1592">Remove alarm pairings</text><!--MD5=[e4cc4ec3a86b2bbb3d9fb5009bc82188]
@startuml
skinparam ResponseMessageBelowArrow true

actor Alarm
participant AlarmController
participant AlarmManager
participant DatabaseManager


Alarm -> AlarmController ++: Reset alarm request
AlarmController -> AlarmManager - -++: Reset alarm
AlarmManager -> DatabaseManager - -++: Reset alarm
DatabaseManager -> DatabaseManager ++- - : Remove alarm pairings

@enduml

PlantUML version 1.2022.7(Mon Aug 22 19:01:30 CEST 2022)
(GPL source distribution)
Java Runtime: Java(TM) SE Runtime Environment
JVM: Java HotSpot(TM) 64-Bit Server VM
Default Encoding: Cp1252
Language: da
Country: DK
--></g></svg>